<svg version="1.1" id="Layer_1" xmlns="http://www.w3.org/2000/svg" xmlns:xlink="http://www.w3.org/1999/xlink" x="0px" y="0px" viewBox="0 0 70.5 78.8" style="enable-background:new 0 0 70.5 78.8;" xml:space="preserve">
 <style type="text/css">
  .st0{fill-rule:evenodd;clip-rule:evenodd;fill:#37B14E;}
 </style>
 <desc>
  Created with Sketch.
 </desc>
 <g id="logo">
  <path id="Fill-16" class="st0" d="M40,78.8c-22,0-40-17.9-40-40h15.2c0,13.6,11.1,24.7,24.7,24.7c4.4,0,8.6-1.1,12.4-3.3
		c2.5-1.4,4.7-3.3,6.6-5.5l11.6,9.8c-3,3.6-6.5,6.5-10.6,8.9C53.9,76.9,47,78.8,40,78.8">
  </path>
  <path id="Fill-17" class="st0" d="M58.9,22.9c-3.4-4-8-6.9-13.1-8.1L49.4,0c8.2,2,15.7,6.6,21.1,13.1L58.9,22.9">
  </path>
  <path id="Fill-18" class="st0" d="M31.4,14.2c0,6.3-5.1,11.4-11.4,11.4c-6.3,0-11.4-5.1-11.4-11.4S13.7,2.9,20,2.9
		C26.3,2.9,31.4,7.9,31.4,14.2">
  </path>
 </g>
</svg>